<svg id="visual" viewBox="0 0 960 540" width="960" height="540" xmlns="http://www.w3.org/2000/svg" xmlns:xlink="http://www.w3.org/1999/xlink" version="1.1"><rect x="0" y="0" width="960" height="540" fill="#001220"></rect><path d="M0 379L22.8 374.2C45.7 369.3 91.3 359.7 137 353.8C182.7 348 228.3 346 274 351.3C319.7 356.7 365.3 369.3 411.2 371.8C457 374.3 503 366.7 548.8 361.2C594.7 355.7 640.3 352.3 686 349.7C731.7 347 777.3 345 823 352.5C868.7 360 914.3 377 937.2 385.5L960 394L960 541L937.2 541C914.3 541 868.7 541 823 541C777.3 541 731.7 541 686 541C640.3 541 594.7 541 548.8 541C503 541 457 541 411.2 541C365.3 541 319.7 541 274 541C228.3 541 182.7 541 137 541C91.3 541 45.7 541 22.8 541L0 541Z" fill="#96e99b"></path><path d="M0 363L22.8 367C45.7 371 91.3 379 137 388.2C182.7 397.3 228.3 407.7 274 412.7C319.7 417.7 365.3 417.3 411.2 409.8C457 402.3 503 387.7 548.8 376C594.7 364.3 640.3 355.7 686 363.2C731.7 370.7 777.3 394.3 823 404.8C868.7 415.3 914.3 412.7 937.2 411.3L960 410L960 541L937.2 541C914.3 541 868.7 541 823 541C777.3 541 731.7 541 686 541C640.3 541 594.7 541 548.8 541C503 541 457 541 411.2 541C365.3 541 319.7 541 274 541C228.3 541 182.7 541 137 541C91.3 541 45.7 541 22.8 541L0 541Z" fill="#48d8b9"></path><path d="M0 440L22.8 431.2C45.7 422.3 91.3 404.7 137 399.7C182.7 394.7 228.3 402.3 274 411.2C319.7 420 365.3 430 411.2 431.7C457 433.3 503 426.7 548.8 421.2C594.7 415.7 640.3 411.3 686 412.3C731.7 413.3 777.3 419.7 823 417.8C868.7 416 914.3 406 937.2 401L960 396L960 541L937.2 541C914.3 541 868.7 541 823 541C777.3 541 731.7 541 686 541C640.3 541 594.7 541 548.8 541C503 541 457 541 411.2 541C365.3 541 319.7 541 274 541C228.3 541 182.7 541 137 541C91.3 541 45.7 541 22.8 541L0 541Z" fill="#00c2ce"></path><path d="M0 435L22.8 440.2C45.7 445.3 91.3 455.7 137 461.5C182.7 467.3 228.3 468.7 274 462C319.7 455.3 365.3 440.7 411.2 437.8C457 435 503 444 548.8 448.8C594.7 453.7 640.3 454.3 686 447.8C731.7 441.3 777.3 427.7 823 430.2C868.7 432.7 914.3 451.3 937.2 460.7L960 470L960 541L937.2 541C914.3 541 868.7 541 823 541C777.3 541 731.7 541 686 541C640.3 541 594.7 541 548.8 541C503 541 457 541 411.2 541C365.3 541 319.7 541 274 541C228.3 541 182.7 541 137 541C91.3 541 45.7 541 22.8 541L0 541Z" fill="#00a8d4"></path><path d="M0 471L22.8 470.5C45.7 470 91.3 469 137 468.8C182.7 468.7 228.3 469.3 274 470.3C319.7 471.3 365.3 472.7 411.2 474.5C457 476.3 503 478.7 548.8 480.8C594.7 483 640.3 485 686 483.5C731.7 482 777.3 477 823 470.7C868.7 464.3 914.3 456.7 937.2 452.8L960 449L960 541L937.2 541C914.3 541 868.7 541 823 541C777.3 541 731.7 541 686 541C640.3 541 594.7 541 548.8 541C503 541 457 541 411.2 541C365.3 541 319.7 541 274 541C228.3 541 182.7 541 137 541C91.3 541 45.7 541 22.8 541L0 541Z" fill="#008bd4"></path><path d="M0 518L22.8 513.2C45.7 508.3 91.3 498.7 137 497.8C182.7 497 228.3 505 274 507.7C319.7 510.3 365.3 507.7 411.2 505C457 502.3 503 499.7 548.8 500.3C594.7 501 640.3 505 686 504C731.7 503 777.3 497 823 497.7C868.7 498.3 914.3 505.7 937.2 509.3L960 513L960 541L937.2 541C914.3 541 868.7 541 823 541C777.3 541 731.7 541 686 541C640.3 541 594.7 541 548.8 541C503 541 457 541 411.2 541C365.3 541 319.7 541 274 541C228.3 541 182.7 541 137 541C91.3 541 45.7 541 22.8 541L0 541Z" fill="#2469c7"></path></svg>